<svg xmlns="http://www.w3.org/2000/svg" viewBox="0 0 1600 700" preserveAspectRatio="xMidYMid slice">
<defs>
<linearGradient id="g" x1="0" y1="0" x2="1" y2="1">
<stop offset="0" stop-color="#1b2832"/><stop offset="0.55" stop-color="#23303c"/><stop offset="1" stop-color="#34474f"/>
</linearGradient>
<pattern id="d" width="54" height="54" patternTransform="rotate(45)" patternUnits="userSpaceOnUse">
<line x1="0" y1="0" x2="0" y2="54" stroke="#ffffff" stroke-opacity="0.03" stroke-width="18"/>
</pattern>
<radialGradient id="glow" cx="78%" cy="28%" r="55%">
<stop offset="0" stop-color="#bbdadb" stop-opacity="0.14"/><stop offset="1" stop-color="#bbdadb" stop-opacity="0"/>
</radialGradient>
</defs>
<rect width="1600" height="700" fill="url(#g)"/>
<rect width="1600" height="700" fill="url(#d)"/>
<rect width="1600" height="700" fill="url(#glow)"/>
<!-- faint roofline silhouettes, lower area, no text -->
<g fill="none" stroke="#cfe7e7" stroke-opacity="0.10" stroke-width="3" stroke-linejoin="round">
<path d="M1080 560 l140 -90 140 90"/>
<path d="M1110 545 v140 h220 v-140"/>
<path d="M1300 470 v34"/>
</g>
<g fill="#bbdadb" fill-opacity="0.12">
<path d="M1410 120 l9 22 22 9 -22 9 -9 22 -9 -22 -22 -9 22 -9z"/>
<path d="M1455 160 l5 13 13 5 -13 5 -5 13 -5 -13 -13 -5 13 -5z"/>
</g>
</svg>